<svg width="291" height="43" viewBox="0 0 291 43" fill="none" xmlns="http://www.w3.org/2000/svg">
<g clip-path="url(#clip0_1_39)">
<path d="M26.25 21.25C26.25 22.9076 25.5915 24.4973 24.4194 25.6694C23.2473 26.8415 21.6576 27.5 20 27.5C18.3424 27.5 16.7527 26.8415 15.5806 25.6694C14.4085 24.4973 13.75 22.9076 13.75 21.25C13.75 19.5924 14.4085 18.0027 15.5806 16.8306C16.7527 15.6585 18.3424 15 20 15C21.6576 15 23.2473 15.6585 24.4194 16.8306C25.5915 18.0027 26.25 19.5924 26.25 21.25Z" fill="#141414"/>
<path d="M5 10C3.67392 10 2.40215 10.5268 1.46447 11.4645C0.526784 12.4021 0 13.6739 0 15L0 30C0 31.3261 0.526784 32.5979 1.46447 33.5355C2.40215 34.4732 3.67392 35 5 35H35C36.3261 35 37.5979 34.4732 38.5355 33.5355C39.4732 32.5979 40 31.3261 40 30V15C40 13.6739 39.4732 12.4021 38.5355 11.4645C37.5979 10.5268 36.3261 10 35 10H32.07C30.744 9.99972 29.4725 9.47275 28.535 8.535L26.465 6.465C25.5275 5.52725 24.256 5.00028 22.93 5H17.07C15.744 5.00028 14.4725 5.52725 13.535 6.465L11.465 8.535C10.5275 9.47275 9.25597 9.99972 7.93 10H5ZM6.25 15C5.91848 15 5.60054 14.8683 5.36612 14.6339C5.1317 14.3995 5 14.0815 5 13.75C5 13.4185 5.1317 13.1005 5.36612 12.8661C5.60054 12.6317 5.91848 12.5 6.25 12.5C6.58152 12.5 6.89946 12.6317 7.13388 12.8661C7.3683 13.1005 7.5 13.4185 7.5 13.75C7.5 14.0815 7.3683 14.3995 7.13388 14.6339C6.89946 14.8683 6.58152 15 6.25 15ZM28.75 21.25C28.75 23.5706 27.8281 25.7962 26.1872 27.4372C24.5462 29.0781 22.3206 30 20 30C17.6794 30 15.4538 29.0781 13.8128 27.4372C12.1719 25.7962 11.25 23.5706 11.25 21.25C11.25 18.9294 12.1719 16.7038 13.8128 15.0628C15.4538 13.4219 17.6794 12.5 20 12.5C22.3206 12.5 24.5462 13.4219 26.1872 15.0628C27.8281 16.7038 28.75 18.9294 28.75 21.25Z" fill="#141414"/>
</g>
<path d="M51.5107 35V9.54545H61.0561C63.0116 9.54545 64.6522 9.91004 65.978 10.6392C67.312 11.3684 68.3188 12.371 68.9982 13.647C69.686 14.9148 70.0298 16.3565 70.0298 17.9723C70.0298 19.6046 69.686 21.0547 68.9982 22.3224C68.3105 23.5902 67.2955 24.5887 65.9531 25.3178C64.6108 26.0387 62.9577 26.3991 60.994 26.3991H54.6676V22.6083H60.3725C61.516 22.6083 62.4523 22.4094 63.1815 22.0117C63.9106 21.614 64.4492 21.0671 64.7972 20.3711C65.1535 19.6751 65.3317 18.8755 65.3317 17.9723C65.3317 17.0691 65.1535 16.2737 64.7972 15.5859C64.4492 14.8982 63.9065 14.3638 63.169 13.9826C62.4399 13.5932 61.4994 13.3984 60.3477 13.3984H56.1218V35H51.5107ZM71.0351 35V9.54545H75.6462V20.3214H87.4413V9.54545H92.0649V35H87.4413V24.1868H75.6462V35H71.0351ZM116.825 22.2727C116.825 25.0154 116.311 27.3645 115.284 29.32C114.265 31.2672 112.873 32.7586 111.108 33.7944C109.351 34.8301 107.358 35.348 105.129 35.348C102.9 35.348 100.903 34.8301 99.1386 33.7944C97.382 32.7504 95.9899 31.2547 94.9624 29.3075C93.9433 27.352 93.4337 25.0071 93.4337 22.2727C93.4337 19.5301 93.9433 17.1851 94.9624 15.2379C95.9899 13.2824 97.382 11.7868 99.1386 10.7511C100.903 9.71532 102.9 9.19744 105.129 9.19744C107.358 9.19744 109.351 9.71532 111.108 10.7511C112.873 11.7868 114.265 13.2824 115.284 15.2379C116.311 17.1851 116.825 19.5301 116.825 22.2727ZM112.189 22.2727C112.189 20.3421 111.887 18.7139 111.282 17.3881C110.685 16.0541 109.857 15.0473 108.796 14.3679C107.735 13.6802 106.513 13.3363 105.129 13.3363C103.746 13.3363 102.523 13.6802 101.463 14.3679C100.402 15.0473 99.5695 16.0541 98.9646 17.3881C98.368 18.7139 98.0697 20.3421 98.0697 22.2727C98.0697 24.2034 98.368 25.8357 98.9646 27.1697C99.5695 28.4955 100.402 29.5022 101.463 30.19C102.523 30.8694 103.746 31.2092 105.129 31.2092C106.513 31.2092 107.735 30.8694 108.796 30.19C109.857 29.5022 110.685 28.4955 111.282 27.1697C111.887 25.8357 112.189 24.2034 112.189 22.2727ZM115.938 13.4109V9.54545H136.247V13.4109H128.379V35H123.805V13.4109H115.938ZM158.779 22.2727C158.779 25.0154 158.265 27.3645 157.238 29.32C156.219 31.2672 154.827 32.7586 153.062 33.7944C151.305 34.8301 149.312 35.348 147.083 35.348C144.855 35.348 142.858 34.8301 141.093 33.7944C139.336 32.7504 137.944 31.2547 136.917 29.3075C135.897 27.352 135.388 25.0071 135.388 22.2727C135.388 19.5301 135.897 17.1851 136.917 15.2379C137.944 13.2824 139.336 11.7868 141.093 10.7511C142.858 9.71532 144.855 9.19744 147.083 9.19744C149.312 9.19744 151.305 9.71532 153.062 10.7511C154.827 11.7868 156.219 13.2824 157.238 15.2379C158.265 17.1851 158.779 19.5301 158.779 22.2727ZM154.143 22.2727C154.143 20.3421 153.841 18.7139 153.236 17.3881C152.639 16.0541 151.811 15.0473 150.75 14.3679C149.689 13.6802 148.467 13.3363 147.083 13.3363C145.7 13.3363 144.478 13.6802 143.417 14.3679C142.356 15.0473 141.524 16.0541 140.919 17.3881C140.322 18.7139 140.024 20.3421 140.024 22.2727C140.024 24.2034 140.322 25.8357 140.919 27.1697C141.524 28.4955 142.356 29.5022 143.417 30.19C144.478 30.8694 145.7 31.2092 147.083 31.2092C148.467 31.2092 149.689 30.8694 150.75 30.19C151.811 29.5022 152.639 28.4955 153.236 27.1697C153.841 25.8357 154.143 24.2034 154.143 22.2727ZM177.191 17.674C176.984 17.0028 176.698 16.4021 176.334 15.8718C175.977 15.3332 175.546 14.8733 175.041 14.4922C174.544 14.111 173.972 13.8252 173.326 13.6346C172.679 13.4357 171.975 13.3363 171.213 13.3363C169.846 13.3363 168.628 13.6802 167.559 14.3679C166.49 15.0556 165.649 16.0665 165.036 17.4006C164.431 18.7263 164.128 20.3421 164.128 22.2479C164.128 24.1702 164.431 25.7984 165.036 27.1325C165.64 28.4665 166.482 29.4815 167.559 30.1776C168.636 30.8653 169.887 31.2092 171.312 31.2092C172.605 31.2092 173.723 30.9606 174.668 30.4634C175.621 29.9663 176.354 29.262 176.868 28.3505C177.382 27.4308 177.639 26.3536 177.639 25.119L178.683 25.2805H171.772V21.6761H182.101V24.7337C182.101 26.9129 181.637 28.7979 180.709 30.3888C179.781 31.9798 178.504 33.2061 176.88 34.0678C175.256 34.9213 173.392 35.348 171.287 35.348C168.942 35.348 166.883 34.8219 165.11 33.7695C163.345 32.7089 161.966 31.205 160.971 29.2578C159.985 27.3023 159.492 24.9822 159.492 22.2976C159.492 20.2427 159.782 18.4073 160.362 16.7915C160.951 15.1758 161.771 13.8045 162.823 12.6776C163.876 11.5424 165.11 10.6806 166.527 10.0923C167.944 9.49574 169.485 9.19744 171.151 9.19744C172.559 9.19744 173.873 9.40459 175.091 9.81889C176.309 10.2249 177.39 10.8049 178.335 11.5589C179.287 12.313 180.071 13.2079 180.684 14.2436C181.297 15.2794 181.699 16.4228 181.889 17.674H177.191ZM183.559 35V9.54545H193.105C195.06 9.54545 196.701 9.88518 198.027 10.5646C199.361 11.2441 200.368 12.197 201.047 13.4233C201.735 14.6413 202.079 16.0624 202.079 17.6864C202.079 19.3188 201.731 20.7357 201.035 21.9371C200.347 23.1303 199.332 24.0542 197.99 24.7088C196.647 25.3551 194.998 25.6783 193.043 25.6783H186.244V21.8501H192.421C193.565 21.8501 194.501 21.6927 195.23 21.3778C195.959 21.0547 196.498 20.5865 196.846 19.9734C197.202 19.3519 197.381 18.5896 197.381 17.6864C197.381 16.7833 197.202 16.0127 196.846 15.3746C196.49 14.7283 195.947 14.2395 195.218 13.908C194.489 13.5683 193.548 13.3984 192.396 13.3984H188.171V35H183.559ZM196.709 23.4659L203.011 35H197.865L191.676 23.4659H196.709ZM206.592 35H201.67L210.631 9.54545H216.324L225.298 35H220.376L213.577 14.7656H213.378L206.592 35ZM206.754 25.0195H220.177V28.7234H206.754V25.0195ZM225.65 35V9.54545H235.196C237.151 9.54545 238.792 9.91004 240.118 10.6392C241.452 11.3684 242.458 12.371 243.138 13.647C243.826 14.9148 244.169 16.3565 244.169 17.9723C244.169 19.6046 243.826 21.0547 243.138 22.3224C242.45 23.5902 241.435 24.5887 240.093 25.3178C238.75 26.0387 237.097 26.3991 235.134 26.3991H228.807V22.6083H234.512C235.656 22.6083 236.592 22.4094 237.321 22.0117C238.05 21.614 238.589 21.0671 238.937 20.3711C239.293 19.6751 239.471 18.8755 239.471 17.9723C239.471 17.0691 239.293 16.2737 238.937 15.5859C238.589 14.8982 238.046 14.3638 237.309 13.9826C236.58 13.5932 235.639 13.3984 234.487 13.3984H230.261V35H225.65ZM245.175 35V9.54545H249.786V20.3214H261.581V9.54545H266.205V35H261.581V24.1868H249.786V35H245.175ZM266.48 9.54545H271.687L277.914 20.8061H278.163L284.39 9.54545H289.597L280.338 25.5043V35H275.739V25.5043L266.48 9.54545Z" fill="#141414"/>
<defs>
<clipPath id="clip0_1_39">
<rect width="40" height="40" fill="white"/>
</clipPath>
</defs>
</svg>
