<svg width="45" height="45" viewBox="0 0 45 45" fill="none" xmlns="http://www.w3.org/2000/svg">
<path d="M44.9999 11.2502C44.9999 11.2502 41.2043 19.2489 40.1772 23.3428C38.8338 28.6975 40.372 32.7456 38.4197 37.9377C35.0449 44.0286 34.8164 45.0126 22.5 44.9999C17.9877 44.9958 5.06071 41.5536 5.06071 41.5536C3.27843 41.0954 0 41.3654 0 39.3748C0 37.3843 2.33249 35.9308 4.40343 35.926L12.5625 36.6425C14.5443 36.5182 16.6205 35.3572 16.6837 32.765C16.6506 28.9281 16.2712 25.9815 14.3236 22.865L6.76076 11.0653C6.30908 10.1259 6.20164 8.5242 7.50917 7.80917C8.8167 7.09404 10.3023 8.15698 10.8096 9.08248L19.2574 20.5734C20.1591 21.4129 21.7641 21.5746 21.6272 19.7878L17.8971 2.68631C17.6648 1.47131 18.2815 0 19.6877 0C21.5334 0 22.6685 0.704529 22.6327 1.81996L26.7342 18.6934C27.0549 19.5147 28.1916 19.405 28.4974 18.6475L29.6657 2.23921C29.7257 1.71581 30.4084 0.803529 31.7188 0.993654C33.0291 1.18368 33.7846 2.5874 33.6458 3.13049L33.2667 19.3432C33.5328 20.7801 34.6625 20.9899 35.5417 20.1877L41.281 9.92332C41.6298 9.06241 42.9955 8.88307 43.7855 9.22441C44.5205 9.70319 45 10.3457 45 11.2497L44.9999 11.2502Z" fill="black"/>
</svg>
